<?xml version="1.0" encoding="UTF-8"?> <svg xmlns="http://www.w3.org/2000/svg" xmlns:xlink="http://www.w3.org/1999/xlink" width="171" height="38.34" viewBox="0 0 171 38.34"><defs><linearGradient id="linear-gradient" y1="0.679" x2="1" y2="0.679" gradientUnits="objectBoundingBox"><stop offset="0" stop-color="#f49e00"></stop><stop offset="0.35" stop-color="#e4261b"></stop><stop offset="0.65" stop-color="#9e1aaa"></stop><stop offset="1" stop-color="#5813a9"></stop></linearGradient></defs><g id="Group_474" data-name="Group 474" transform="translate(-190 -6525)"><path id="Path_1214" data-name="Path 1214" d="M-14952.081-2063a27.171,27.171,0,0,1,10.04,1.912s-1.435-8.287,0-9.721,6.852-2.709,7.809,0a10.256,10.256,0,0,1,0,5.737,48.476,48.476,0,0,1,7.65-1.275c2.39,0,5.418,2.231,5.418,2.231s-1.435-6.534,0-7.968,2.709-2.072,5.259-1.116,3.188,7.331,3.507,9.084,2.071,11.156,2.071,11.156,1.912,1.434.956,4.94a5.25,5.25,0,0,1-5.737,4.144c-1.753-.319-1.593-.478-4.621,0s-7.33.956-6.853-1.912-.638-12.909-2.391-12.909-2.869.637-2.869,3.347,1.116,12.271,1.116,12.271v.8l-5.9,1.434-2.391-2.231-4.144,2.231-5.737,2.391-5.578-1.116s-7.491-6.375-7.331-11a21.7,21.7,0,0,1,2.869-9.084Z" transform="translate(15153 8600)" fill="#fff"></path><path id="Path_1215" data-name="Path 1215" d="M-14895.028-2064.274c3.984,0,8.287,2.55,8.287,2.55s2.232-3.028,7.81-2.55a29.6,29.6,0,0,1,9.721,2.55s1.275-10.2,8.766-9.4,6.215,6.853,6.215,6.853,5.578-.478,6.216,0,3.188,1.753,3.188,1.753,6.853-2.391,8.605-1.753,7.012,1.753,7.012,1.753,5.9-1.753,8.925-1.753h4.463s-1.276-7.49,2.39-6.853,7.332,2.868,7.013,5.259,5.9.637,7.012,1.594,5.419,3.825,5.419,14.184-.8,10.518-.8,10.518-5.26.478-7.013-2.55,1.434-13.865-1.594-13.865-2.23-.319-3.027,3.665a101.321,101.321,0,0,0-1.116,11.474l-4.621,1.275-3.665-2.55s-3.188,3.028-5.9,2.55a46.426,46.426,0,0,1-7.49-2.55s-4.3,2.709-7.968,2.55-8.765-2.391-10.837-5.578-2.869-2.391-3.187,0,.159,6.056-2.391,5.578a37.707,37.707,0,0,1-6.853-2.55,6.753,6.753,0,0,1-4.3,2.55c-2.709.319-5.578-2.55-5.578-2.55s-6.056,2.709-9.4,2.55-8.605-2.55-8.605-2.55-1.276,3.028-6.694,2.55-10.2-2.55-10.2-4.781a22.05,22.05,0,0,1,1.275-5.737s-1.754-4.781-1.275-7.968,4.463-5.9,6.375-6.215A13.228,13.228,0,0,1-14895.028-2064.274Z" transform="translate(15153 8600)" fill="#fff"></path><g id="Group_471" data-name="Group 471" transform="translate(190 6525)"><path id="Path_311" data-name="Path 311" d="M52.669,68.845c-2.932.4-4.1,3.033-3.635,6.427.562,4.077,2.37,6.307,5.764,5.865,2.973-.4,4.1-3.033,3.635-6.387C57.891,70.612,56.023,68.383,52.669,68.845Zm112.677-1.426a4.446,4.446,0,0,0-4.358,4.419l-.04.683h2.31c4.881,0,6.005-.542,6.005-2.009C169.263,68.443,167.736,67.418,165.346,67.418ZM211.26,83.045l-.02-10.866c0-3.093-1.225-8.014-4.459-10.284a12.438,12.438,0,0,0-4.76-1.908,15.9,15.9,0,0,0-3.937-.2,7.288,7.288,0,0,0-1.547-4.419,8.138,8.138,0,0,0-5.423-2.229s-2.691-.161-3.917,1c-1.306,1.225-1.145,3.736-1.145,3.736v2.491a13.8,13.8,0,0,0-4.379-.7A14.808,14.808,0,0,0,173.42,62.4a10.912,10.912,0,0,0-7.632-2.732,15.154,15.154,0,0,0-7.251,1.968,8.968,8.968,0,0,0-.864-.663,8.713,8.713,0,0,0-4.419-1.1,7.106,7.106,0,0,0-2.47.482v-.823c0-2.049-1.125-6.769-7.411-6.769a12.142,12.142,0,0,0-8.6,3.535,12.326,12.326,0,0,0-2.711,5.885,13.856,13.856,0,0,0-7.934-2.511,14.905,14.905,0,0,0-8.275,2.591,12.15,12.15,0,0,0-7.713-2.691,15.928,15.928,0,0,0-8.335,2.591,10.644,10.644,0,0,0-3.977,8.155A7.091,7.091,0,0,0,97.8,75.533a4.591,4.591,0,0,0-1,1.828,14.494,14.494,0,0,0-.4,3.394,7.238,7.238,0,0,0,2.069,4.62,13.523,13.523,0,0,0,8.155,2.912,16.359,16.359,0,0,0,8.857-2.711,15.053,15.053,0,0,0,8.416,2.651,14.168,14.168,0,0,0,8.938-3.194,8.065,8.065,0,0,0,5.584,2.732,6.959,6.959,0,0,0,3.6-.522,5.531,5.531,0,0,0,1.647-1.788,8.823,8.823,0,0,0,5.724,2.33c1.627,0,3.294-.321,4.1-1.366a5.109,5.109,0,0,0,.743-2.872l-.02-1.928a18.643,18.643,0,0,0,3.394,3.876,14.119,14.119,0,0,0,8.235,2.752,18.977,18.977,0,0,0,7.934-1.888,16.1,16.1,0,0,0,7.07,1.848,18.492,18.492,0,0,0,7.552-1.988A8.583,8.583,0,0,0,192.36,87.7c2.39,0,3.234.442,4.66-.763,1.044-.884,1.044-3.535,1.044-3.535V72.44s-.06-1.346.6-1.346.562,1.326.562,1.326V80.9a8.09,8.09,0,0,0,2.049,5.242,7.659,7.659,0,0,0,4.76,1.627s2.792.341,4.057-.823C211.461,85.736,211.26,83.045,211.26,83.045Zm-86.948,1.767a9.335,9.335,0,0,1-9.038-6.186c-.362,3.9-3.394,6.186-8.616,6.186-3.816,0-6.648-1.968-6.648-4.077v-2.35h.2a10.333,10.333,0,0,0,6.226,1.968c2.531,0,3.776-.723,3.776-2.27,0-1.185-.723-1.767-4.318-2.27-4.379-.623-6.508-2.35-6.508-5.5,0-3.9,3.495-7.19,8.817-7.19,4.7,0,6.628,2.43,6.628,4.419v1.968h-.2a9.02,9.02,0,0,0-5.925-1.928c-3.153,0-4.158.964-4.158,2.31,0,1.044.623,1.466,4.158,2.049,2.832.462,4.8,1.426,5.825,2.993,0-.181-.02-.362-.02-.562,0-6.226,3.575-11.248,10.284-11.248,6.226,0,9.822,5,9.822,10.5C134.6,79.851,131,84.812,124.312,84.812Zm56.2,0c-3.816,0-6.648-1.968-6.648-4.077v-2.35h.2a10.333,10.333,0,0,0,6.226,1.968c2.531,0,3.776-.723,3.776-2.27,0-1.185-.723-1.767-4.318-2.27-3.013-.422-4.941-1.366-5.865-2.932-.844,2.47-3.8,3.314-9.48,3.314h-3.394c.382,2.611,2.772,4.278,5.8,4.278,2.149,0,4.7-.422,6.347-1.968h.2v1.607c0,2.651-1.808,4.7-7.512,4.7a10.235,10.235,0,0,1-10.2-10.424,13.308,13.308,0,0,1,1.285-5.945A7.193,7.193,0,0,0,154.38,68c-2.31,0-3.575,1.265-3.575,4.419V84.35h-1.426c-2.31,0-3.776-1.145-3.776-3.314V71.5a10.33,10.33,0,0,1,.261-2.37,4.1,4.1,0,0,1-3.133,1.366H140.5V84.35h-2.069a3.068,3.068,0,0,1-3.113-3.073V63.884a7.608,7.608,0,0,1,8.074-7.612c2.229,0,3.957,1.225,3.957,3.274v1.727h-.161a9.268,9.268,0,0,0-2.993-.462c-2.109,0-3.7.723-3.7,3.495v1.848h5.925v1.306c1.065-2.37,3.254-4.077,6.849-4.077,3.194,0,4.318,1.808,4.318,3.394v.562a9.557,9.557,0,0,1,8.235-4.218,8.217,8.217,0,0,1,7.793,5.082c1.024-2.912,4.137-5.082,8.456-5.082,4.7,0,6.628,2.43,6.628,4.419v1.968h-.2a9.02,9.02,0,0,0-5.925-1.928c-3.153,0-4.158.964-4.158,2.31,0,1.044.623,1.466,4.158,2.049,4.318.683,6.628,2.571,6.628,5.885C189.167,82.181,186.074,84.812,180.51,84.812Zm27.275-.462H206.1A3.18,3.18,0,0,1,202.6,80.9V72.42c0-3.394-1.848-4.74-4.117-4.74-1.607,0-3.736,1.225-3.736,4.881V84.33h-1.687c-2.43,0-3.535-1.346-3.535-3.455V56.633h1.607c2.47,0,3.655,1.386,3.655,3.314v5.925a5.856,5.856,0,0,1,4.5-2.772c5.343,0,8.5,3.194,8.5,9.078ZM94.1,72.319c.02-.04.02-.1.04-.161a4.992,4.992,0,0,0-.02-1.185L92.678,57.055c-.1-.924-.8-3.736-2.45-4.961-1.928-1.426-4.881-1.225-5.865-1.085,0,0-2.41.321-3.394,1.346a4.056,4.056,0,0,0-.844,3.113l.643,3.876a14.257,14.257,0,0,0-4.5-1.587,12.229,12.229,0,0,0-4.84.482,4.178,4.178,0,0,0-.1-.482,7.589,7.589,0,0,0-2.39-4.178c-1.767-1.285-4.579-1.085-5.825-.924,0,0-2.29.221-3.234,1.225a4.33,4.33,0,0,0-.823,3.133l.763,5.041a12.592,12.592,0,0,0-7.893-1.366c-8.777,1.185-12.573,8.375-11.469,16.55.984,7.211,6.99,12.995,15.144,11.87a12.535,12.535,0,0,0,8.456-4.479c1.044,1.526,4.2,2.209,6.267,1.928a5.21,5.21,0,0,0,3.495-1.225,5.051,5.051,0,0,0,.884-2.812,14.979,14.979,0,0,0-.161-2.009c-.4-2.932-1.366-9.781-1.366-9.781s-.442-1.426.221-1.526c.643-.1.763,1.486.763,1.486l1.506,9.8a5.541,5.541,0,0,0,2.912,3.6c3.234,1.647,7.19.221,7.03.3a4.527,4.527,0,0,0,1.406-1.065v-.02A6.616,6.616,0,0,0,94.1,72.319ZM54.979,85.776c-6.166.844-10.384-3.6-11.127-9.038-.844-6.166,2.029-11.609,8.657-12.513,6.166-.844,10.384,3.635,11.127,9.078C64.479,79.47,61.607,84.872,54.979,85.776Zm27.7-4.238a3.192,3.192,0,0,1-3.937-2.952l-1.145-8.4c-.462-3.354-2.47-4.439-4.72-4.138-1.607.221-3.535,1.727-3.033,5.343l1.587,11.669-1.687.221c-2.41.321-3.7-.864-3.977-2.952l-3.254-24,1.607-.221c2.43-.321,3.816.884,4.057,2.792,0,0,.542,4.037.8,5.865a5.883,5.883,0,0,1,4.077-3.354c5.3-.723,8.857,2.029,9.641,7.853l1.627,12.051Zm.763-26.693,2.33-.321a2.864,2.864,0,0,1,3.414,2.792l1.506,14-1.567.221c-1.828.241-3.093-.783-3.414-2.792Zm6.467,25.709a3.3,3.3,0,1,1,2.832-3.716A3.33,3.33,0,0,1,89.907,80.554ZM124.312,67.72c-2.973,0-4.459,2.47-4.459,5.885,0,4.117,1.506,6.588,4.921,6.588,2.993,0,4.459-2.47,4.459-5.845C129.233,70.19,127.707,67.72,124.312,67.72Z" transform="translate(-40.271 -50.911)" fill="url(#linear-gradient)"></path></g></g></svg> 